<svg width="492" height="434" xmlns="http://www.w3.org/2000/svg" xmlns:xlink="http://www.w3.org/1999/xlink" overflow="hidden"><defs><clipPath id="clip0"><rect x="1321" y="36" width="492" height="434"/></clipPath><clipPath id="clip1"><rect x="1321" y="37" width="491" height="432"/></clipPath><clipPath id="clip2"><rect x="1321" y="37" width="491" height="433"/></clipPath><clipPath id="clip3"><rect x="1321" y="37" width="491" height="433"/></clipPath></defs><g clip-path="url(#clip0)" transform="translate(-1321 -36)"><g clip-path="url(#clip1)"><g clip-path="url(#clip2)"><g clip-path="url(#clip3)"><path d="M234.94 432C202.261 432 170.759 420.42 145.734 399.222 121.886 379.006 105.792 351.626 99.7074 321.203 97.254 321.497 94.7024 321.792 92.1508 321.89 68.5979 322.97 46.1245 314.824 28.6561 298.926 11.2858 283.028 1.07951 261.339-1.04596e-14 237.786-1.86461 196.373 25.1231 159.866 64.0836 148.972 62.906 142.888 62.1209 136.803 61.8264 130.719 60.3544 97.3521 71.9346 65.3594 94.408 40.7269 116.98 16.0945 147.697 1.66833 181.063 0.0981372 205.009-0.981372 228.66 4.80872 249.367 16.7815 266.05 26.497 280.182 39.8437 290.781 55.7419 306.188 44.7506 324.442 38.2735 343.48 37.4884 396.965 35.035 442.599 76.6452 444.954 130.228 445.347 138.373 444.66 146.421 442.991 154.468 471.353 173.31 489.018 204.224 490.588 238.473 493.238 297.258 447.604 347.308 388.82 349.957 379.987 350.35 371.057 349.663 362.224 347.798 352.803 370.075 337.788 389.408 318.455 404.129 296.08 421.107 269.485 430.724 241.319 432L234.94 432ZM107.755 299.907C109.717 299.907 111.68 300.496 113.25 301.576 115.606 303.146 117.078 305.697 117.47 308.445 121.101 337.985 135.626 364.874 158.393 384.207 181.259 403.638 210.308 413.55 240.338 412.274 264.48 411.195 287.346 402.951 306.483 388.329 325.227 374.099 339.162 354.864 346.817 332.783 348.583 327.778 353.883 325.129 358.888 326.601 368.407 329.447 378.221 330.722 387.838 330.232 435.827 328.073 473.12 287.248 470.96 239.259 469.587 209.229 453.1 182.437 426.897 167.52 422.971 165.263 421.009 160.651 422.284 156.234 424.738 147.991 425.719 139.453 425.327 131.013 423.364 88.3235 387.053 55.055 344.363 57.0177 326.012 57.8028 308.445 65.2612 295 77.8228 292.743 79.8837 289.701 80.8651 286.659 80.3744 283.617 79.8837 281.065 78.0191 279.593 75.3694 270.27 58.0972 256.433 43.7692 239.455 33.8573 222.085 23.7492 202.163 18.8423 181.946 19.8237 153.781 21.0995 127.873 33.2685 108.834 54.0736 89.7955 74.8787 80.08 101.768 81.3558 129.934 81.7483 137.785 83.0241 145.734 85.2812 153.781 86.0663 156.529 85.5756 159.375 84.1036 161.73 82.6315 164.085 80.1781 165.656 77.3321 166.146 42.7878 171.544 17.9591 201.966 19.5293 236.903 20.3144 255.157 28.2635 272.036 41.8064 284.402 55.3494 296.767 73.0141 303.048 91.2676 302.263 95.9782 302.066 100.689 301.379 105.301 300.202 106.086 300.005 106.97 299.907 107.755 299.907ZM212.958 218.159C212.958 221.005 212.271 224.047 210.897 227.384 209.523 230.721 207.266 233.959 204.322 237.1 201.279 240.24 197.452 242.89 192.84 244.852 188.129 246.815 182.731 247.796 176.549 247.796 171.838 247.796 167.618 247.306 163.693 246.423 159.866 245.539 156.333 244.165 153.192 242.301 150.052 240.436 147.206 237.885 144.556 234.842 142.201 231.996 140.238 228.954 138.57 225.421 136.901 221.888 135.626 218.257 134.841 214.332 133.957 210.406 133.565 206.186 133.565 201.77 133.565 194.606 134.644 188.129 136.705 182.535 138.766 176.941 141.808 172.035 145.636 168.011 149.561 163.987 154.075 160.945 159.277 158.786 164.478 156.627 170.072 155.646 175.96 155.646 183.222 155.646 189.601 157.118 195.195 159.964 200.789 162.81 205.107 166.441 208.149 170.661 211.191 174.881 212.663 178.904 212.663 182.633 212.663 184.694 211.976 186.559 210.504 188.129 209.032 189.699 207.266 190.484 205.205 190.484 202.85 190.484 201.181 189.896 200.004 188.816 198.826 187.736 197.55 185.872 196.176 183.124 193.821 178.708 191.073 175.371 187.835 173.212 184.694 171.053 180.769 169.876 176.058 169.876 168.6 169.876 162.712 172.721 158.295 178.315 153.879 184.007 151.72 191.956 151.72 202.359 151.72 209.327 152.702 215.019 154.664 219.631 156.627 224.244 159.375 227.678 162.908 229.935 166.441 232.193 170.661 233.37 175.469 233.37 180.671 233.37 185.087 232.095 188.62 229.543 192.153 226.991 194.901 223.164 196.765 218.159 197.55 215.804 198.532 213.841 199.611 212.369 200.691 210.897 202.555 210.112 205.107 210.112 207.266 210.112 209.13 210.897 210.602 212.369 212.173 214.135 212.958 216 212.958 218.159ZM268.405 155.646C277.63 155.646 285.579 157.51 292.253 161.239 298.926 164.969 303.931 170.366 307.268 177.236 310.702 184.105 312.371 192.251 312.371 201.574 312.371 208.443 311.389 214.724 309.525 220.416 307.66 226.01 304.814 230.917 301.183 235.039 297.454 239.16 292.841 242.301 287.444 244.558 282.046 246.815 275.766 247.895 268.798 247.895 261.83 247.895 255.549 246.815 250.054 244.558 244.558 242.301 239.945 239.16 236.216 235.039 232.487 230.917 229.739 226.01 227.875 220.22 226.01 214.43 225.029 208.247 225.029 201.574 225.029 194.704 226.01 188.423 227.973 182.731 229.935 177.04 232.781 172.133 236.511 168.109 240.24 164.085 244.754 161.043 250.152 158.884 255.549 156.725 261.634 155.646 268.405 155.646ZM294.117 201.574C294.117 195.097 293.038 189.405 290.977 184.596 288.916 179.787 285.874 176.156 281.948 173.703 278.023 171.249 273.508 169.974 268.503 169.974 264.872 169.974 261.536 170.661 258.493 172.035 255.451 173.408 252.801 175.371 250.544 177.923 248.385 180.474 246.619 183.811 245.343 187.835 244.067 191.858 243.478 196.373 243.478 201.476 243.478 206.579 244.067 211.093 245.343 215.215 246.619 219.337 248.385 222.673 250.741 225.421 253.096 228.169 255.746 230.132 258.788 231.506 261.83 232.88 265.167 233.468 268.7 233.468 273.312 233.468 277.532 232.291 281.458 230.034 285.383 227.678 288.425 224.145 290.682 219.337 292.94 214.528 294.117 208.64 294.117 201.574ZM360.556 249.661C359.084 248.483 357.121 247.895 354.668 247.895L344.756 247.895C345.639 247.109 346.719 246.128 347.896 245.147 351.233 242.399 353.686 240.338 355.06 239.062 356.729 237.59 358.299 235.627 359.771 233.076 361.439 230.328 362.224 227.286 362.224 223.949 362.224 221.79 361.832 219.729 361.047 217.668 360.262 215.706 359.084 213.939 357.71 212.369 356.238 210.799 354.57 209.621 352.607 208.738 347.504 206.481 339.555 206.186 334.157 208.345 331.704 209.327 329.545 210.701 327.876 212.271 326.208 213.841 324.932 215.804 324.147 217.865 323.362 219.925 322.871 221.888 322.871 223.851 322.871 226.501 323.951 228.169 324.932 229.15 326.306 230.524 327.975 231.211 329.937 231.211 332.783 231.211 334.452 229.935 335.335 228.856 336.218 227.776 337.003 226.304 337.69 224.44 338.083 223.36 338.279 222.673 338.475 222.477 340.045 220.122 342.695 219.533 344.854 220.711 345.443 221.005 345.934 221.496 346.326 222.085 346.719 222.673 346.817 223.36 346.817 224.145 346.817 224.93 346.621 225.814 346.228 226.795 345.737 227.875 345.05 228.856 344.069 229.935 342.99 231.015 341.714 232.193 340.144 233.272 338.966 234.057 337.199 235.529 334.746 237.885 332.391 240.044 329.643 242.791 326.699 245.834 325.717 246.815 324.932 248.189 324.147 249.759 323.362 251.526 322.97 252.998 322.97 254.274 322.97 256.334 323.755 258.297 325.325 259.769 326.895 261.339 328.956 262.125 331.507 262.125L355.846 262.125C358.201 262.125 360.065 261.438 361.439 259.965 362.715 258.592 363.402 256.923 363.402 254.96 363.108 252.801 362.224 250.937 360.556 249.661Z" fill="#9AA7B2" transform="matrix(1.00019 0 0 1 1321.11 37)"/></g></g></g></g></svg>