<svg width="448" height="434" xmlns="http://www.w3.org/2000/svg" xmlns:xlink="http://www.w3.org/1999/xlink" overflow="hidden"><defs><clipPath id="clip0"><rect x="229" y="334" width="448" height="434"/></clipPath><clipPath id="clip1"><rect x="230" y="335" width="446" height="432"/></clipPath><clipPath id="clip2"><rect x="230" y="335" width="446" height="432"/></clipPath><clipPath id="clip3"><rect x="230" y="335" width="446" height="432"/></clipPath></defs><g clip-path="url(#clip0)" transform="translate(-229 -334)"><g clip-path="url(#clip1)"><g clip-path="url(#clip2)"><g clip-path="url(#clip3)"><path d="M433.275 215.684C433.275 333.268 337.952 428.587 220.369 428.587 102.786 428.587 7.46657 333.268 7.46657 215.684 7.46657 98.1009 102.786 2.77809 220.369 2.77809 337.952 2.77809 433.275 98.1009 433.275 215.684" fill="#5073C2" transform="matrix(1 0 0 1.00144 232.649 335)"/><path d="M214.438 358.856C169.803 346.708 131.742 373.907 116.469 401.542 147.203 418.76 182.636 428.587 220.369 428.587 241.701 428.587 262.294 425.437 281.723 419.599 271.15 392.539 244.879 367.137 214.438 358.856ZM121.383 309.022C112.031 269.832 142.54 276.495 153.188 278.988 189.703 287.525 211.306 276.931 216.206 261.319 236.67 196.07 176.384 185.922 151.42 176.509 98.9044 156.712 138.155 108.71 150.242 91.1129 175.109 54.9155 173.716 28.8057 157.687 12.1658 70.6985 38.9254 7.46657 119.919 7.46657 215.684 7.46657 254.07 17.6291 290.082 35.4082 321.18 99.0722 374.371 128.685 339.609 121.383 309.022ZM433.275 215.684C433.275 278.738 405.855 335.381 362.302 374.364 351.289 368.722 342.498 359.817 336.956 347.272 319.281 307.276 406.18 266.975 357.888 173.613 341.452 141.829 305.979 77.9616 324.894 30.1769 389.59 66.7064 433.275 136.087 433.275 215.684" fill="#6FCEBD" transform="matrix(1 0 0 1.00144 232.649 335)"/><path d="M267.74 39.4468C306.501 49.8735 341.316 73.3481 365.766 105.546 380.634 125.125 391.222 147.06 397.242 170.746 397.564 172.002 398.696 172.838 399.935 172.838 400.163 172.838 400.392 172.813 400.624 172.756 402.109 172.377 403.009 170.863 402.631 169.374 396.428 144.964 385.512 122.357 370.193 102.186 345.001 69.0131 309.129 44.8244 269.182 34.0763 267.704 33.6799 266.176 34.5583 265.776 36.0402 265.376 37.5221 266.254 39.0468 267.74 39.4468ZM407.43 196.502C407.273 194.974 405.912 193.856 404.384 194.017 402.856 194.17 401.745 195.534 401.899 197.062 402.523 203.211 402.841 209.475 402.841 215.684 402.841 231.939 400.692 248.068 396.453 263.622 396.05 265.104 396.924 266.633 398.406 267.036 398.649 267.1 398.896 267.133 399.138 267.133 400.36 267.133 401.481 266.322 401.816 265.083 406.187 249.053 408.401 232.435 408.401 215.684 408.401 209.289 408.076 202.833 407.43 196.502ZM384.494 301.594C383.145 300.859 381.456 301.355 380.724 302.705 352.675 354.178 301.412 389.308 243.594 396.685 242.073 396.878 240.994 398.271 241.187 399.795 241.369 401.199 242.565 402.224 243.944 402.224 244.058 402.224 244.179 402.213 244.297 402.199 303.88 394.6 356.706 358.399 385.605 305.365 386.341 304.019 385.841 302.33 384.494 301.594ZM34.3548 215.684C34.3548 328.75 122.497 421.213 233.817 428.151 229.368 428.43 224.89 428.587 220.369 428.587 102.786 428.587 7.46657 333.268 7.46657 215.684 7.46657 98.1009 102.786 2.77809 220.369 2.77809 224.89 2.77809 229.368 2.93878 233.817 3.21373 122.497 10.1518 34.3548 102.618 34.3548 215.684" fill="#FFFFFF" transform="matrix(1 0 0 1.00144 232.649 335)"/><path d="M320.345 203.369 304.273 219.441C303.187 220.526 303.187 222.283 304.273 223.369 304.815 223.915 305.529 224.183 306.24 224.183 306.951 224.183 307.661 223.915 308.204 223.369L324.273 207.3C325.362 206.214 325.362 204.454 324.273 203.369 323.191 202.283 321.427 202.283 320.345 203.369ZM344.641 203.369 328.572 219.441C327.486 220.526 327.486 222.283 328.572 223.369 329.115 223.915 329.825 224.183 330.539 224.183 331.25 224.183 331.961 223.915 332.503 223.369L348.572 207.3C349.658 206.214 349.658 204.454 348.572 203.369 347.487 202.283 345.726 202.283 344.641 203.369ZM103.586 203.369 87.5135 219.441C86.428 220.526 86.428 222.283 87.5135 223.369 88.0598 223.915 88.7704 224.183 89.481 224.183 90.1916 224.183 90.9058 223.915 91.4449 223.369L107.517 207.3C108.603 206.214 108.603 204.454 107.517 203.369 106.432 202.283 104.671 202.283 103.586 203.369ZM131.813 203.369C132.899 204.454 132.899 206.214 131.813 207.3L115.744 223.369C115.202 223.915 114.491 224.183 113.78 224.183 113.066 224.183 112.356 223.915 111.813 223.372 110.727 222.283 110.727 220.526 111.813 219.441L127.882 203.369C128.967 202.283 130.727 202.283 131.813 203.369" fill="#F173AC" transform="matrix(1 0 0 1.00144 232.649 335)"/><path d="M431.722 258.805C429.79 268.339 427.226 277.67 424.063 286.743 427.316 285.194 429.879 283.283 431.704 281.052 436.303 275.431 436.26 267.675 431.722 258.805ZM436.007 284.572C432.665 288.657 427.766 291.746 421.456 293.806 402.113 343.623 364.619 385.13 315.506 409.308 315.11 409.501 314.692 409.594 314.278 409.594 313.253 409.594 312.268 409.022 311.782 408.04 311.104 406.662 311.671 404.994 313.05 404.32 359.684 381.363 395.582 342.377 414.821 295.485 410.061 296.395 404.72 296.867 398.806 296.867 395.064 296.867 391.1 296.685 386.919 296.313 360.506 293.967 326.515 283.997 288.586 267.482L258.313 271.253C258.195 271.268 258.081 271.275 257.966 271.275 256.584 271.275 255.385 270.246 255.21 268.839 255.02 267.315 256.102 265.926 257.627 265.736L276.509 263.383 260.694 258.088C259.237 257.602 258.452 256.024 258.941 254.57 259.43 253.114 261.005 252.328 262.458 252.817L278.941 258.334 264.919 244.004C263.844 242.905 263.862 241.144 264.958 240.069 266.054 238.998 267.815 239.016 268.889 240.116L290.596 262.294C337.999 282.958 374.418 291.232 398.835 291.236 406.037 291.236 412.193 290.514 417.282 289.179 422.377 275.513 426.087 261.23 428.251 246.515 428.473 244.993 429.887 243.947 431.404 244.169 432.922 244.39 433.972 245.804 433.75 247.322 433.593 248.389 433.404 249.446 433.232 250.507 442.167 263.744 443.177 275.813 436.007 284.572ZM308.565 122.757C304.619 115.948 297.299 111.716 289.454 111.716 281.612 111.716 274.288 115.948 270.343 122.757 269.575 124.086 270.028 125.785 271.357 126.553 272.685 127.324 274.385 126.871 275.156 125.543 278.109 120.444 283.587 117.273 289.454 117.273 295.321 117.273 300.802 120.444 303.755 125.543 304.269 126.432 305.201 126.932 306.161 126.932 306.636 126.932 307.115 126.81 307.554 126.553 308.882 125.785 309.336 124.086 308.565 122.757ZM175.673 122.757C171.728 115.948 164.407 111.716 156.562 111.716 148.721 111.716 141.397 115.948 137.451 122.757 136.684 124.086 137.137 125.785 138.465 126.553 139.794 127.324 141.493 126.871 142.265 125.543 145.218 120.444 150.699 117.273 156.562 117.273 162.429 117.273 167.91 120.444 170.863 125.543 171.378 126.432 172.313 126.932 173.27 126.932 173.745 126.932 174.224 126.81 174.663 126.553 175.991 125.785 176.445 124.086 175.673 122.757ZM251.674 213.37C251.674 221.233 245.279 227.632 237.413 227.632 229.55 227.632 223.151 221.233 223.151 213.37 223.151 211.835 221.905 210.589 220.369 210.589 218.837 210.589 217.591 211.835 217.591 213.37 217.591 221.233 211.192 227.632 203.329 227.632 195.463 227.632 189.064 221.233 189.064 213.37 189.064 211.835 187.821 210.589 186.286 210.589 184.75 210.589 183.504 211.835 183.504 213.37 183.504 224.301 192.399 233.192 203.329 233.192 210.567 233.192 216.909 229.293 220.369 223.486 223.829 229.293 230.175 233.192 237.413 233.192 248.343 233.192 257.234 224.301 257.234 213.37 257.234 211.835 255.992 210.589 254.456 210.589 252.921 210.589 251.674 211.835 251.674 213.37ZM132.577 188.835C132.577 190.371 133.823 191.617 135.359 191.617L172.281 191.617C173.481 191.617 174.541 190.849 174.92 189.714 175.298 188.578 174.906 187.328 173.949 186.611L142.547 163.108C141.318 162.19 139.576 162.44 138.655 163.668 137.737 164.897 137.987 166.639 139.215 167.56L163.929 186.057 135.359 186.057C133.823 186.057 132.577 187.3 132.577 188.835ZM302.087 163.668C301.166 162.44 299.423 162.19 298.195 163.108L266.793 186.611C265.836 187.328 265.444 188.578 265.822 189.714 266.201 190.849 267.261 191.617 268.461 191.617L305.383 191.617C306.919 191.617 308.161 190.371 308.161 188.835 308.161 187.3 306.919 186.057 305.383 186.057L276.813 186.057 301.527 167.56C302.755 166.639 303.005 164.897 302.087 163.668ZM16.6114 286.701C13.4548 277.627 10.9053 268.332 8.99131 258.855 4.4778 267.707 4.44566 275.442 9.03773 281.052 10.8481 283.262 13.3941 285.154 16.6114 286.701ZM281.098 419.82C281.512 421.299 280.655 422.834 279.177 423.252 260.134 428.637 240.348 431.368 220.369 431.368 162.761 431.368 108.596 408.933 67.8597 368.197 46.317 346.655 29.8984 321.355 19.2038 293.781 12.9335 291.721 8.06647 288.643 4.7349 284.572-2.42815 275.82-1.42833 263.762 7.48799 250.543 5.64188 239.123 4.68491 227.479 4.68491 215.684 4.68491 158.073 27.1203 103.911 67.8597 63.1713 108.596 22.4354 162.761 0 220.369 0 242.24 0 263.819 3.26372 284.508 9.69833 333.143 24.8243 375.046 56.9295 402.502 100.101 403.323 101.393 402.941 103.111 401.649 103.936 400.352 104.761 398.631 104.378 397.81 103.082 371.061 61.0216 330.236 29.7413 282.855 15.0046 262.705 8.73778 241.68 5.55976 220.369 5.55976 104.507 5.55976 10.2482 99.8221 10.2482 215.684 10.2482 241.526 14.9474 266.29 23.5209 289.179 45.8814 295.013 88.7954 289.036 150.149 262.294L171.853 240.116C172.927 239.016 174.684 238.998 175.784 240.069 176.88 241.144 176.898 242.905 175.823 244.004L161.801 258.334 178.28 252.817C179.737 252.328 181.312 253.114 181.801 254.57 182.286 256.024 181.504 257.602 180.048 258.088L164.229 263.383 183.115 265.736C184.64 265.926 185.722 267.315 185.532 268.839 185.357 270.246 184.158 271.275 182.776 271.275 182.661 271.275 182.547 271.268 182.429 271.253L152.156 267.482C114.227 283.997 80.2362 293.967 53.8229 296.313 49.645 296.685 45.6778 296.867 41.9356 296.867 36.0581 296.867 30.7483 296.402 26.0098 295.503 57.4972 371.893 132.752 425.809 220.369 425.809 239.837 425.809 259.112 423.148 277.663 417.903 279.141 417.485 280.68 418.346 281.098 419.82ZM417.421 142.558C416.889 141.119 417.621 139.519 419.06 138.983 420.499 138.448 422.099 139.183 422.634 140.622 431.54 164.611 436.053 189.864 436.053 215.684 436.053 217.22 434.811 218.462 433.275 218.462 431.74 218.462 430.494 217.22 430.494 215.684 430.494 190.528 426.094 165.925 417.421 142.558" fill="#35142B" transform="matrix(1 0 0 1.00144 232.649 335)"/></g></g></g></g></svg>