<svg width="658" height="789" xmlns="http://www.w3.org/2000/svg" xmlns:xlink="http://www.w3.org/1999/xlink" overflow="hidden"><defs><clipPath id="clip0"><rect x="560" y="216" width="658" height="789"/></clipPath><clipPath id="clip1"><rect x="561" y="216" width="656" height="788"/></clipPath><clipPath id="clip2"><rect x="561" y="216" width="656" height="789"/></clipPath><clipPath id="clip3"><rect x="561" y="216" width="656" height="789"/></clipPath></defs><g clip-path="url(#clip0)" transform="translate(-560 -216)"><g clip-path="url(#clip1)"><g clip-path="url(#clip2)"><g clip-path="url(#clip3)"><path d="M28.5217 259.266C30.3077 261.133 31.6878 263.379 33.6902 265.111 38.3717 269.197 43.8109 271.579 49.9806 272.228 51.5772 272.39 53.1467 272.823 54.7974 272.823 63.0238 272.823 70.5195 270.415 77.6093 266.383 83.1026 263.271 88.7041 260.321 94.9551 259.158 103.019 257.642 110.298 259.374 116.468 265.03 119.364 267.682 121.772 270.659 123.341 274.285 126.535 281.645 124.884 290.142 119.607 295.879 114.899 300.993 108.864 303.293 102.343 304.673 97.7964 305.648 93.1691 306.351 88.4876 306.405 86.6475 306.432 86.3499 306.622 86.6205 308.489 86.9993 311.114 86.3228 313.847 87.5135 316.364 88.8124 319.07 90.6254 321.397 92.6549 323.589 99.0412 330.435 106.645 335.658 114.736 340.312 123.396 345.264 132.515 348.998 142.148 351.488 149.157 353.328 156.328 354.005 163.526 353.382 168.018 353.003 172.321 351.569 176.434 349.702 178.491 348.755 180.547 347.862 182.577 346.915 185.986 345.318 189.694 345.075 193.347 344.858 198.38 344.588 202.358 342.504 204.983 338.174 207.554 333.953 207.121 329.542 205.28 325.239 203.17 320.341 199.841 316.391 195.458 313.279 191.994 310.816 188.151 309.003 184.363 307.109 181.873 305.864 179.384 304.565 176.894 303.32 175.081 302.427 174.432 300.885 174.242 298.964 173.403 289.98 175.92 282.159 181.765 275.205 185.31 270.983 189.613 267.844 194.24 265.057 198.813 262.297 203.765 260.403 208.798 258.725 211.18 257.913 213.453 257.886 215.888 258.481 222.897 260.159 229.716 262.459 236.589 264.516 244.843 267.005 253.177 269.197 261.702 270.604 265.679 271.254 269.738 271.795 273.743 271.66 278.56 271.47 283.404 271.064 288.167 270.036 295.771 268.413 303.104 265.977 310.059 262.567 317.121 259.104 323.724 254.936 328.974 248.902 332.14 245.303 334.061 241.163 335.035 236.454 336.253 230.609 335.198 225.035 333.709 219.433 331.815 212.289 328.947 205.47 326.051 198.705 323.02 191.669 320.423 184.498 319.394 176.867 319.124 174.892 319.286 172.97 320.341 171.13 322.073 168.045 324.157 165.258 326.484 162.633 333.872 154.272 342.829 148.021 352.868 143.312 362.583 138.766 372.758 135.519 383.23 133.164 389.454 131.757 395.732 130.756 401.983 129.674 406.123 128.97 410.372 128.835 414.566 128.402 419.68 127.888 424.795 127.779 429.936 127.888 436.837 128.023 443.71 128.564 450.61 129.376 457.592 130.215 464.438 131.514 471.203 133.273 480.269 135.627 489.036 138.847 497.56 142.825 511.415 149.292 524.052 157.762 536.609 166.341 545.241 172.213 553.846 178.112 562.911 183.28 572.572 188.774 582.747 193.184 593.706 195.376 597.116 196.053 600.606 196.405 604.097 196.756 608.968 197.244 613.812 196.973 618.656 197.162 620.144 197.216 621.632 196.215 623.121 197.216 610.023 206.985 595.384 213.399 579.608 217.377 567.999 220.326 556.227 221.679 544.24 220.407 535.093 219.46 526.407 216.944 518.099 213.047 511.145 209.773 504.65 205.713 498.399 201.276 494.205 198.299 490.065 195.295 485.897 192.264 484.274 191.101 482.542 190.154 480.729 189.342 467.226 183.226 453.127 179.384 438.298 178.518 428.177 177.922 418.3 179.005 408.991 183.28 400.792 187.042 393.838 192.291 389.4 200.41 389.183 200.788 388.859 201.113 388.588 201.492 387.803 201.709 386.991 201.817 386.261 202.169 381.958 204.198 382.283 202.791 383.825 207.391 384.448 209.231 384.394 211.342 385.882 212.857 385.259 215.239 385.259 217.674 385.259 220.11 385.259 225.711 385.124 231.286 384.772 236.86 384.339 244.22 382.743 251.283 379.658 258.021 375.653 266.789 369.104 273.202 360.77 277.857 348.105 284.919 334.548 288.762 320.017 289.087 308.814 289.33 297.665 288.437 286.516 287.869 273.987 287.22 261.485 286.624 248.983 288.14 243.057 288.843 237.239 290.007 231.881 292.848 231.015 293.308 230.176 293.849 229.283 294.309 228.12 294.905 228.011 295.635 228.796 296.664 230.041 298.233 231.502 299.559 232.99 300.858 236.346 303.753 239.837 306.459 242.922 309.626 247.684 314.496 250.093 320.369 250.471 327.107 251.148 338.986 244.329 348.349 232.801 351.38 230.257 352.029 227.687 352.435 225.062 352.543 224.196 352.57 223.33 352.625 222.572 352.679 222.329 353.518 222.843 353.707 223.14 353.978 225.495 356.115 227.416 358.605 229.364 361.095 234.858 368.103 237.077 376.059 236.265 384.908 235.128 385.503 234.154 384.854 233.153 384.529 220.055 379.956 206.471 377.845 192.752 376.302 188.611 375.842 184.471 375.842 180.358 375.491 175.622 375.112 170.805 375.004 166.043 375.437 164.96 375.382 163.878 375.247 162.823 375.247 150.645 375.193 138.522 376.032 126.453 377.683 116.631 379.009 106.862 380.632 97.3364 383.419 89.0559 385.855 81.2625 389.264 74.4433 394.649 74.0374 394.974 73.6315 395.38 73.0361 395.326 71.9537 386.234 73.8479 377.818 78.4753 369.943 81.5061 364.775 85.944 361.257 91.1937 358.605 92.6279 357.874 94.0892 357.171 95.5234 356.386 98.4729 354.816 100.259 351.434 99.853 348.105 99.6907 346.861 99.393 345.643 98.8788 344.479 98.067 342.612 96.8764 341.557 94.7657 341.097 87.297 339.473 81.2354 335.387 76.2022 329.704 73.2797 326.403 71.7643 322.533 71.5749 318.15 71.4396 314.74 71.4396 311.303 71.3854 307.894 71.3854 307.163 71.3854 306.459 71.3313 305.729 70.8172 300.885 70.6548 300.723 65.8381 300.669 60.8319 300.614 55.961 299.965 51.2795 298.152 43.9462 295.311 38.6964 290.169 35.1786 283.269 31.3631 275.584 29.2794 267.601 28.5217 259.266Z" fill="#2B2B2B" transform="matrix(1.00008 0 0 1 559.376 215.459)"/><path d="M286.651 642.307C280.048 641.468 273.473 640.521 266.87 639.79 262.053 639.249 257.182 639.113 252.366 638.518 246.548 637.815 240.703 637.706 234.885 637.111 231.854 636.813 228.769 636.976 225.684 636.922 224.737 636.489 223.763 636.543 222.762 636.516 208.961 636.218 195.187 635.623 181.386 636.002 170.941 636.299 160.468 636.516 150.05 637.111 138.631 637.787 127.238 638.68 115.846 639.79 100.259 641.305 84.6992 643.2 69.2477 645.662 64.5391 646.42 59.8577 647.286 55.1492 648.098 55.3927 643.687 56.421 639.384 57.0975 635.027 58.8294 623.635 60.3718 612.188 61.6978 600.742 62.5367 593.408 63.2402 586.048 63.9979 578.688 64.8368 578.363 65.7028 578.146 66.5957 578.038 69.8159 577.659 73.0361 577.253 76.2293 576.766 85.9169 575.305 95.6587 574.25 105.4 573.248 115.765 572.193 126.183 571.246 136.574 570.596 148.345 569.839 160.117 569.27 171.888 568.946 186.744 568.54 201.6 568.783 216.456 568.892 217.349 569.514 218.378 569.27 219.352 569.243 225.819 569.081 232.287 569.622 238.727 570.001 244.897 570.38 251.067 570.732 257.237 571.354 260.078 571.652 262.919 572.22 265.815 572.004 267.168 575.548 267.736 579.283 268.683 582.936 273.635 602.203 279.399 621.199 285.948 639.979 286.218 640.764 286.435 641.549 286.651 642.307Z" fill="#C9463D" transform="matrix(1.00008 0 0 1 559.376 215.459)"/><path d="M354.681 785.862C346.13 771.141 337.768 756.312 329.84 741.267 315.254 713.584 302.536 685.062 291.684 655.729 290.034 651.264 288.329 646.799 286.678 642.334 280.076 641.495 273.5 640.548 266.897 639.817 262.08 639.276 257.209 639.141 252.393 638.545 246.575 637.842 240.73 637.733 234.912 637.138 231.881 636.84 228.796 637.003 225.711 636.949 226.658 642.334 227.768 647.692 228.85 653.05 231.935 668.285 235.94 683.276 240.594 698.105 244.193 709.606 248.469 720.863 252.934 732.039 256.831 741.727 260.917 751.306 265.192 760.804 268.548 768.273 272.201 775.606 275.638 783.021 276.449 784.78 277.586 786.458 277.64 788.541 303.618 788.541 329.596 788.541 355.574 788.541 355.98 787.405 355.141 786.674 354.681 785.862Z" fill="#939393" transform="matrix(1.00008 0 0 1 559.376 215.459)"/><path d="M257.264 571.381C260.105 571.679 262.946 572.247 265.842 572.031 265.761 571.327 265.734 570.596 265.571 569.893 262.162 555.443 259.293 540.884 256.749 526.244 254.747 514.798 253.042 503.324 251.608 491.823 250.58 483.624 249.633 475.398 248.767 467.171 247.792 457.863 246.764 448.581 246.115 439.245 245.925 436.296 245.898 433.292 245.492 430.369 245.005 426.689 245.113 422.982 245.303 419.302 245.682 412.401 245.844 405.419 246.899 398.6 247.603 394.162 245.032 391.97 242.651 389.4 241.433 388.074 239.81 387.208 238.159 386.423 237.347 386.044 236.481 385.72 236.265 384.691 235.128 385.287 234.154 384.637 233.153 384.312 220.055 379.739 206.471 377.628 192.752 376.086 188.611 375.626 184.471 375.626 180.358 375.274 175.622 374.895 170.805 374.787 166.043 375.22 167.125 377.087 169.074 377.98 170.697 379.198 176.326 383.419 181.684 387.938 186.473 393.08 190.56 397.518 194.213 402.308 197.406 407.449 197.866 408.18 198.353 408.964 198.407 409.776 197.866 410.372 197.298 410.263 196.784 410.209 189.694 409.289 182.577 409.966 175.46 409.722 170.237 409.533 165.042 410.155 159.819 410.426 155.625 410.669 151.43 411.292 147.263 411.752 139.145 412.672 131.108 414.079 123.098 415.621 116.658 416.866 110.325 418.625 104.047 420.546 95.0904 423.279 86.3228 426.5 77.9611 430.802 75.9587 431.831 74.0374 432.994 72.089 434.131 71.2231 434.645 70.4113 435.186 69.383 435.321 69.0582 436.323 69.1124 437.351 69.2206 438.379 72.6843 436.864 75.9045 434.942 79.4224 433.508 88.2982 429.936 97.4988 427.528 106.916 425.958 113.816 424.822 120.744 423.821 127.644 422.846 130.215 422.495 132.84 422.468 135.41 422.143 139.334 421.629 143.312 421.872 147.209 421.223 147.831 421.115 148.454 421.142 149.103 421.142 155.219 421.142 161.388 420.817 167.477 421.196 174.729 421.656 182.009 421.683 189.234 422.549 193.401 423.036 197.595 423.658 201.817 423.848 204.658 423.983 205.226 424.389 205.822 427.257 206.85 432.074 207.77 436.918 208.311 441.843 209.177 449.88 209.61 457.944 210.016 466.008 210.26 471.041 210.151 476.074 210.476 481.108 211.017 489.632 211.153 498.183 211.586 506.707 211.883 512.525 212.37 518.343 212.668 524.188 212.966 529.735 213.805 535.255 214.075 540.803 214.238 544.213 214.535 547.622 214.833 551.005 215.239 555.903 215.428 560.855 216.24 565.726 216.402 566.781 216.321 567.89 216.348 568.973 217.241 569.595 218.27 569.352 219.244 569.325 225.711 569.162 232.179 569.703 238.619 570.082 244.924 570.434 251.094 570.786 257.264 571.381Z" fill="#939393" transform="matrix(1.00008 0 0 1 559.376 215.459)"/><path d="M656.838 108.485C654.971 92.5196 649.045 78.2047 639.384 65.4051 626.963 48.9523 611.377 36.1527 593.463 26.1133 569.676 12.8266 543.834 6.41332 517.044 3.22019 507.464 2.08365 497.831 1.54245 488.197 1.05536 485.87 1.08242 483.57 1.10948 481.243 1.10948 475.614 1.10948 470.013 1.08242 464.384 1.08242 459.27 1.40714 454.128 1.70481 449.014 2.11071 436.783 3.03077 424.66 4.84382 412.726 7.71223 398.871 11.0407 385.611 15.9115 373.38 23.2449 361.013 30.6595 350.054 39.5082 343.153 52.6326 340.258 58.1258 336.442 63.0779 332.41 67.8405 322.019 80.126 309.003 86.4581 292.74 85.4027 285.975 84.9698 279.372 83.4815 272.932 81.4249 265.734 79.1247 258.562 76.6893 251.337 74.4703 242.191 71.656 232.774 70.5195 223.276 71.656 207.202 73.5773 192.643 79.6389 179.546 89.0559 167.531 97.6882 159.873 109.243 157.573 124.018 156.355 131.947 152.891 138.712 147.831 144.773 140.904 153.027 132.217 158.872 122.53 163.337 113.6 167.477 104.237 170.454 94.7927 173.187 87.2699 175.379 79.7471 177.625 72.8196 181.44 60.3989 188.259 49.9806 197.46 41.2131 208.555 38.1282 212.452 35.5574 216.7 33.4467 221.192 28.9276 230.88 27.6287 241.19 27.764 251.743 27.7911 254.233 27.8181 256.777 28.4946 259.212 30.2806 261.079 31.6607 263.325 33.6632 265.057 38.3446 269.143 43.7838 271.524 49.9536 272.174 51.5501 272.336 53.1196 272.769 54.7703 272.769 62.9967 272.769 70.4924 270.361 77.5823 266.329 83.0756 263.217 88.6771 260.267 94.928 259.104 102.992 257.588 110.271 259.32 116.441 264.976 119.337 267.628 121.745 270.604 123.314 274.23 126.508 281.591 124.857 290.088 119.58 295.825 114.872 300.939 108.837 303.239 102.316 304.619 97.7694 305.594 93.142 306.297 88.4606 306.351 86.6205 306.378 86.3228 306.568 86.5934 308.435 86.9723 311.06 86.2957 313.793 87.4864 316.309 88.7853 319.016 90.5984 321.343 92.6279 323.535 99.0142 330.381 106.618 335.604 114.709 340.258 123.369 345.21 132.488 348.944 142.121 351.434 149.13 353.274 156.301 353.951 163.499 353.328 167.991 352.949 172.294 351.515 176.407 349.648 178.464 348.701 180.52 347.808 182.55 346.861 185.959 345.264 189.667 345.021 193.32 344.804 198.353 344.534 202.331 342.45 204.956 338.12 207.527 333.899 207.094 329.488 205.253 325.185 203.143 320.287 199.814 316.337 195.43 313.225 191.967 310.762 188.124 308.949 184.336 307.055 181.846 305.81 179.357 304.511 176.867 303.266 175.054 302.373 174.405 300.831 174.215 298.91 173.376 289.926 175.893 282.105 181.738 275.151 185.283 270.929 189.585 267.79 194.213 265.003 198.786 262.243 203.738 260.348 208.771 258.671 211.153 257.859 213.426 257.832 215.861 258.427 222.87 260.105 229.689 262.405 236.562 264.462 244.816 266.951 253.15 269.143 261.674 270.55 265.652 271.2 269.711 271.741 273.716 271.606 278.533 271.416 283.377 271.01 288.14 269.982 295.744 268.358 303.077 265.923 310.031 262.513 317.094 259.05 323.697 254.882 328.947 248.848 332.113 245.249 334.034 241.109 335.008 236.4 336.226 230.555 335.171 224.98 333.682 219.379 331.788 212.235 328.92 205.416 326.024 198.651 322.993 191.615 320.396 184.444 319.367 176.813 319.097 174.837 319.259 172.916 320.314 171.076 322.046 167.991 324.13 165.204 326.457 162.579 333.845 154.217 342.802 147.966 352.841 143.258 362.556 138.712 372.73 135.465 383.203 133.11 389.427 131.703 395.705 130.702 401.956 129.62 406.096 128.916 410.345 128.781 414.539 128.348 419.653 127.834 424.768 127.725 429.909 127.834 436.81 127.969 443.683 128.51 450.583 129.322 457.565 130.161 464.411 131.46 471.176 133.219 480.242 135.573 489.009 138.793 497.533 142.771 511.388 149.238 524.025 157.708 536.581 166.286 545.214 172.159 553.819 178.058 562.884 183.226 572.545 188.72 582.719 193.13 593.679 195.322 597.089 195.999 600.579 196.351 604.07 196.702 608.941 197.189 613.785 196.919 618.629 197.108 620.117 197.162 621.605 196.161 623.094 197.162 625.529 195.782 627.586 193.888 629.642 192.021 636.489 185.77 641.901 178.599 644.282 169.452 644.823 167.342 645.608 165.366 646.555 163.418 652.346 151.295 656.324 138.658 657.055 125.155 657.055 120.987 657.055 116.82 657.055 112.653 657 111.191 657 109.838 656.838 108.485Z" fill="#545454" transform="matrix(1.00008 0 0 1 559.376 215.459)"/><path d="M383.852 207.229C384.475 209.069 384.421 211.18 385.909 212.695 386.044 212.587 386.261 212.479 386.288 212.343 386.531 208.555 387.641 204.956 388.642 201.33 387.857 201.546 387.046 201.654 386.315 202.006 381.985 204.036 382.31 202.656 383.852 207.229Z" fill="#545454" transform="matrix(1.00008 0 0 1 559.376 215.459)"/><path d="M265.192 760.804C260.917 751.306 256.831 741.7 252.934 732.039 248.442 720.863 244.166 709.606 240.594 698.105 235.967 683.276 231.962 668.285 228.85 653.05 227.768 647.692 226.658 642.334 225.711 636.949 224.764 636.516 223.79 636.57 222.789 636.543 208.988 636.245 195.214 635.65 181.413 636.029 170.968 636.326 160.495 636.543 150.077 637.138 138.658 637.815 127.265 638.708 115.873 639.817 100.286 641.332 84.7262 643.227 69.2747 645.689 64.5662 646.447 59.8848 647.313 55.1762 648.125 55.0409 648.341 54.8245 648.558 54.7703 648.801 54.0126 652.752 53.282 656.73 52.5243 660.708 49.6288 676.078 45.7863 691.232 40.9154 706.088 37.154 717.562 32.7431 728.765 27.6016 739.697 21.3236 753.065 14.3691 766.108 6.84629 778.827 4.97912 781.993 3.03077 785.132 1.62363 788.541 93.6291 788.541 185.635 788.541 277.64 788.541 277.613 786.485 276.477 784.807 275.638 783.021 272.201 775.606 268.548 768.273 265.192 760.804Z" fill="#CCCCCC" transform="matrix(1.00008 0 0 1 559.376 215.459)"/><path d="M488.17 0.541209C480.242 0.541209 472.286 0.541209 464.357 0.541209 464.357 0.730632 464.357 0.920055 464.357 1.08242 469.986 1.08242 475.587 1.10948 481.216 1.10948 483.543 1.10948 485.843 1.08242 488.17 1.05536 488.143 0.892995 488.143 0.730632 488.17 0.541209Z" fill="#CCCCCC" transform="matrix(1.00008 0 0 1 559.376 215.459)"/><path d="M657.082 112.544C657.082 116.712 657.082 120.879 657.082 125.046 657.244 125.046 657.406 125.019 657.569 125.019 657.569 120.879 657.569 116.712 657.569 112.571 657.406 112.544 657.244 112.544 657.082 112.544Z" fill="#CCCCCC" transform="matrix(1.00008 0 0 1 559.376 215.459)"/><path d="M76.2293 576.793C85.9169 575.332 95.6587 574.277 105.4 573.275 115.765 572.22 126.183 571.273 136.574 570.623 148.345 569.866 160.117 569.298 171.888 568.973 186.744 568.567 201.6 568.81 216.456 568.919 216.429 567.836 216.511 566.727 216.348 565.671 215.536 560.801 215.347 555.849 214.941 550.951 214.643 547.568 214.346 544.158 214.183 540.749 213.913 535.201 213.074 529.681 212.776 524.134 212.479 518.316 211.992 512.498 211.694 506.653 211.261 498.129 211.126 489.577 210.584 481.053 210.26 476.02 210.395 470.987 210.124 465.954 209.718 457.89 209.285 449.826 208.42 441.789 207.878 436.864 206.958 432.02 205.93 427.203 205.335 424.362 204.766 423.929 201.925 423.794 197.704 423.604 193.509 422.982 189.342 422.495 182.09 421.656 174.837 421.602 167.585 421.142 161.47 420.763 155.327 421.087 149.211 421.087 148.589 421.087 147.939 421.06 147.317 421.169 143.42 421.818 139.442 421.575 135.519 422.089 132.948 422.441 130.323 422.441 127.752 422.792 120.825 423.766 113.897 424.768 107.024 425.904 97.607 427.474 88.4065 429.882 79.5306 433.454 76.0128 434.861 72.7926 436.81 69.3288 438.325 69.3018 439.407 69.3018 440.49 69.2747 441.572 69.1935 449.176 69.5183 456.807 69.7889 464.411 70.0595 472.34 69.3018 480.242 69.3559 488.143 69.41 496.343 68.7065 504.488 68.7065 512.687 68.7065 513.039 68.7335 513.418 68.6523 513.77 67.7323 518.559 68.1923 523.43 67.8135 528.274 67.4346 533.009 67.164 537.772 66.9475 542.535 66.8393 545.295 66.731 548.082 66.4334 550.869 66.0275 554.604 65.5133 558.338 65.4592 562.127 65.4592 563.02 65.5133 563.94 65.351 564.833 64.6203 569.433 64.458 574.087 63.9709 578.715 64.8098 578.39 65.6757 578.173 66.5687 578.065 69.8159 577.659 73.0361 577.28 76.2293 576.793Z" fill="#CCCCCC" transform="matrix(1.00008 0 0 1 559.376 215.459)"/><path d="M68.6253 414.268C68.7335 420.925 69.4641 427.555 69.3018 434.239 69.3018 434.591 69.4371 434.942 69.4912 435.294 70.4924 435.159 71.3313 434.618 72.1973 434.104 74.1185 432.967 76.0669 431.803 78.0694 430.775 86.404 426.473 95.1716 423.252 104.156 420.519 110.434 418.625 116.739 416.839 123.206 415.594 131.216 414.052 139.253 412.645 147.371 411.725 151.566 411.237 155.76 410.615 159.927 410.399 165.123 410.101 170.318 409.506 175.568 409.695 182.658 409.939 189.802 409.262 196.892 410.182 197.406 410.236 197.974 410.345 198.515 409.749 198.434 408.937 197.974 408.153 197.514 407.422 194.321 402.308 190.668 397.491 186.582 393.053 181.792 387.884 176.434 383.365 170.805 379.171 169.182 377.953 167.234 377.06 166.151 375.193 165.069 375.139 163.986 375.004 162.931 375.004 150.754 374.949 138.631 375.788 126.562 377.439 116.739 378.765 106.97 380.389 97.4446 383.176 89.1642 385.611 81.3708 389.021 74.5515 394.406 74.1456 394.731 73.7397 395.137 73.1444 395.082 71.7372 397.383 69.7348 399.223 68.4359 401.604 68.0841 402.253 67.7052 402.768 67.8946 403.579 68.5712 407.097 68.5712 410.723 68.6253 414.268Z" fill="#CCCCCC" transform="matrix(1.00008 0 0 1 559.376 215.459)"/></g></g></g></g></svg>